<?xml version="1.0" encoding="utf-8" standalone="no"?>
<!DOCTYPE svg PUBLIC "-//W3C//DTD SVG 1.1//EN"
  "http://www.w3.org/Graphics/SVG/1.1/DTD/svg11.dtd">
<svg xmlns:xlink="http://www.w3.org/1999/xlink" width="576pt" height="576pt" viewBox="0 0 576 576" xmlns="http://www.w3.org/2000/svg" version="1.1">
 <metadata>
  <rdf:RDF xmlns:dc="http://purl.org/dc/elements/1.1/" xmlns:cc="http://creativecommons.org/ns#" xmlns:rdf="http://www.w3.org/1999/02/22-rdf-syntax-ns#">
   <cc:Work>
    <dc:type rdf:resource="http://purl.org/dc/dcmitype/StillImage"/>
    <dc:date>2026-02-19T23:12:24.877720</dc:date>
    <dc:format>image/svg+xml</dc:format>
    <dc:creator>
     <cc:Agent>
      <dc:title>Matplotlib v3.10.7, https://matplotlib.org/</dc:title>
     </cc:Agent>
    </dc:creator>
   </cc:Work>
  </rdf:RDF>
 </metadata>
 <defs>
  <style type="text/css">*{stroke-linejoin: round; stroke-linecap: butt}</style>
 </defs>
 <g id="figure_1">
  <g id="patch_1">
   <path d="M 0 576 
L 576 576 
L 576 0 
L 0 0 
z
" style="fill: #ffffff"/>
  </g>
  <g id="axes_1">
   <g id="patch_2">
    <path d="M 72 512.64 
L 518.4 512.64 
L 518.4 69.12 
L 72 69.12 
z
" style="fill: #ffffff"/>
   </g>
   <g id="matplotlib.axis_1">
    <g id="xtick_1">
     <g id="line2d_1">
      <path d="M 99.9 512.64 
L 99.9 69.12 
" clip-path="url(#p379601a524)" style="fill: none; stroke: #b0b0b0; stroke-opacity: 0.3; stroke-width: 0.8; stroke-linecap: square"/>
     </g>
     <g id="line2d_2">
      <defs>
       <path id="m5add0c2ece" d="M 0 0 
L 0 3.5 
" style="stroke: #000000; stroke-width: 0.8"/>
      </defs>
      <g>
       <use xlink:href="#m5add0c2ece" x="99.9" y="512.64" style="stroke: #000000; stroke-width: 0.8"/>
      </g>
     </g>
     <g id="text_1">
      <!-- 0 -->
      <g transform="translate(92.9 539.0825) scale(0.28 -0.28)">
       <defs>
        <path id="TimesNewRomanPSMT-30" d="M 231 2094 
Q 231 2819 450 3342 
Q 669 3866 1031 4122 
Q 1313 4325 1613 4325 
Q 2100 4325 2488 3828 
Q 2972 3213 2972 2159 
Q 2972 1422 2759 906 
Q 2547 391 2217 158 
Q 1888 -75 1581 -75 
Q 975 -75 572 641 
Q 231 1244 231 2094 
z
M 844 2016 
Q 844 1141 1059 588 
Q 1238 122 1591 122 
Q 1759 122 1940 273 
Q 2122 425 2216 781 
Q 2359 1319 2359 2297 
Q 2359 3022 2209 3506 
Q 2097 3866 1919 4016 
Q 1791 4119 1609 4119 
Q 1397 4119 1231 3928 
Q 1006 3669 925 3112 
Q 844 2556 844 2016 
z
" transform="scale(0.015625)"/>
       </defs>
       <use xlink:href="#TimesNewRomanPSMT-30"/>
      </g>
     </g>
    </g>
    <g id="xtick_2">
     <g id="line2d_3">
      <path d="M 239.4 512.64 
L 239.4 69.12 
" clip-path="url(#p379601a524)" style="fill: none; stroke: #b0b0b0; stroke-opacity: 0.3; stroke-width: 0.8; stroke-linecap: square"/>
     </g>
     <g id="line2d_4">
      <g>
       <use xlink:href="#m5add0c2ece" x="239.4" y="512.64" style="stroke: #000000; stroke-width: 0.8"/>
      </g>
     </g>
     <g id="text_2">
      <!-- 5 -->
      <g transform="translate(232.4 539.0825) scale(0.28 -0.28)">
       <defs>
        <path id="TimesNewRomanPSMT-35" d="M 2778 4238 
L 2534 3706 
L 1259 3706 
L 981 3138 
Q 1809 3016 2294 2522 
Q 2709 2097 2709 1522 
Q 2709 1188 2573 903 
Q 2438 619 2231 419 
Q 2025 219 1772 97 
Q 1413 -75 1034 -75 
Q 653 -75 479 54 
Q 306 184 306 341 
Q 306 428 378 495 
Q 450 563 559 563 
Q 641 563 702 538 
Q 763 513 909 409 
Q 1144 247 1384 247 
Q 1750 247 2026 523 
Q 2303 800 2303 1197 
Q 2303 1581 2056 1914 
Q 1809 2247 1375 2428 
Q 1034 2569 447 2591 
L 1259 4238 
L 2778 4238 
z
" transform="scale(0.015625)"/>
       </defs>
       <use xlink:href="#TimesNewRomanPSMT-35"/>
      </g>
     </g>
    </g>
    <g id="xtick_3">
     <g id="line2d_5">
      <path d="M 378.9 512.64 
L 378.9 69.12 
" clip-path="url(#p379601a524)" style="fill: none; stroke: #b0b0b0; stroke-opacity: 0.3; stroke-width: 0.8; stroke-linecap: square"/>
     </g>
     <g id="line2d_6">
      <g>
       <use xlink:href="#m5add0c2ece" x="378.9" y="512.64" style="stroke: #000000; stroke-width: 0.8"/>
      </g>
     </g>
     <g id="text_3">
      <!-- 10 -->
      <g transform="translate(364.9 539.0825) scale(0.28 -0.28)">
       <defs>
        <path id="TimesNewRomanPSMT-31" d="M 750 3822 
L 1781 4325 
L 1884 4325 
L 1884 747 
Q 1884 391 1914 303 
Q 1944 216 2037 169 
Q 2131 122 2419 116 
L 2419 0 
L 825 0 
L 825 116 
Q 1125 122 1212 167 
Q 1300 213 1334 289 
Q 1369 366 1369 747 
L 1369 3034 
Q 1369 3497 1338 3628 
Q 1316 3728 1258 3775 
Q 1200 3822 1119 3822 
Q 1003 3822 797 3725 
L 750 3822 
z
" transform="scale(0.015625)"/>
       </defs>
       <use xlink:href="#TimesNewRomanPSMT-31"/>
       <use xlink:href="#TimesNewRomanPSMT-30" transform="translate(50 0)"/>
      </g>
     </g>
    </g>
    <g id="xtick_4">
     <g id="line2d_7">
      <path d="M 518.4 512.64 
L 518.4 69.12 
" clip-path="url(#p379601a524)" style="fill: none; stroke: #b0b0b0; stroke-opacity: 0.3; stroke-width: 0.8; stroke-linecap: square"/>
     </g>
     <g id="line2d_8">
      <g>
       <use xlink:href="#m5add0c2ece" x="518.4" y="512.64" style="stroke: #000000; stroke-width: 0.8"/>
      </g>
     </g>
     <g id="text_4">
      <!-- 15 -->
      <g transform="translate(504.4 539.0825) scale(0.28 -0.28)">
       <use xlink:href="#TimesNewRomanPSMT-31"/>
       <use xlink:href="#TimesNewRomanPSMT-35" transform="translate(50 0)"/>
      </g>
     </g>
    </g>
    <g id="text_5">
     <!-- x -->
     <g transform="translate(284.7 578.235625) scale(0.42 -0.42)">
      <defs>
       <path id="TimesNewRomanPSMT-78" d="M 84 2863 
L 1431 2863 
L 1431 2747 
Q 1303 2747 1251 2703 
Q 1200 2659 1200 2588 
Q 1200 2513 1309 2356 
Q 1344 2306 1413 2200 
L 1616 1875 
L 1850 2200 
Q 2075 2509 2075 2591 
Q 2075 2656 2022 2701 
Q 1969 2747 1850 2747 
L 1850 2863 
L 2819 2863 
L 2819 2747 
Q 2666 2738 2553 2663 
Q 2400 2556 2134 2200 
L 1744 1678 
L 2456 653 
Q 2719 275 2831 198 
Q 2944 122 3122 113 
L 3122 0 
L 1772 0 
L 1772 113 
Q 1913 113 1991 175 
Q 2050 219 2050 291 
Q 2050 363 1850 653 
L 1431 1266 
L 972 653 
Q 759 369 759 316 
Q 759 241 829 180 
Q 900 119 1041 113 
L 1041 0 
L 106 0 
L 106 113 
Q 219 128 303 191 
Q 422 281 703 653 
L 1303 1450 
L 759 2238 
Q 528 2575 401 2661 
Q 275 2747 84 2747 
L 84 2863 
z
" transform="scale(0.015625)"/>
      </defs>
      <use xlink:href="#TimesNewRomanPSMT-78"/>
     </g>
    </g>
   </g>
   <g id="matplotlib.axis_2">
    <g id="ytick_1">
     <g id="line2d_9">
      <path d="M 72 475.68 
L 518.4 475.68 
" clip-path="url(#p379601a524)" style="fill: none; stroke: #b0b0b0; stroke-opacity: 0.3; stroke-width: 0.8; stroke-linecap: square"/>
     </g>
     <g id="line2d_10">
      <defs>
       <path id="m6f852f1a74" d="M 0 0 
L -3.5 0 
" style="stroke: #000000; stroke-width: 0.8"/>
      </defs>
      <g>
       <use xlink:href="#m6f852f1a74" x="72" y="475.68" style="stroke: #000000; stroke-width: 0.8"/>
      </g>
     </g>
     <g id="text_6">
      <!-- −1.0 -->
      <g transform="translate(14.210625 485.40125) scale(0.28 -0.28)">
       <defs>
        <path id="TimesNewRomanPSMT-2212" d="M 3484 2000 
L 116 2000 
L 116 2256 
L 3484 2256 
L 3484 2000 
z
" transform="scale(0.015625)"/>
        <path id="TimesNewRomanPSMT-2e" d="M 800 606 
Q 947 606 1047 504 
Q 1147 403 1147 259 
Q 1147 116 1045 14 
Q 944 -88 800 -88 
Q 656 -88 554 14 
Q 453 116 453 259 
Q 453 406 554 506 
Q 656 606 800 606 
z
" transform="scale(0.015625)"/>
       </defs>
       <use xlink:href="#TimesNewRomanPSMT-2212"/>
       <use xlink:href="#TimesNewRomanPSMT-31" transform="translate(56.396484 0)"/>
       <use xlink:href="#TimesNewRomanPSMT-2e" transform="translate(106.396484 0)"/>
       <use xlink:href="#TimesNewRomanPSMT-30" transform="translate(131.396484 0)"/>
      </g>
     </g>
    </g>
    <g id="ytick_2">
     <g id="line2d_11">
      <path d="M 72 383.28 
L 518.4 383.28 
" clip-path="url(#p379601a524)" style="fill: none; stroke: #b0b0b0; stroke-opacity: 0.3; stroke-width: 0.8; stroke-linecap: square"/>
     </g>
     <g id="line2d_12">
      <g>
       <use xlink:href="#m6f852f1a74" x="72" y="383.28" style="stroke: #000000; stroke-width: 0.8"/>
      </g>
     </g>
     <g id="text_7">
      <!-- −0.5 -->
      <g transform="translate(14.210625 393.00125) scale(0.28 -0.28)">
       <use xlink:href="#TimesNewRomanPSMT-2212"/>
       <use xlink:href="#TimesNewRomanPSMT-30" transform="translate(56.396484 0)"/>
       <use xlink:href="#TimesNewRomanPSMT-2e" transform="translate(106.396484 0)"/>
       <use xlink:href="#TimesNewRomanPSMT-35" transform="translate(131.396484 0)"/>
      </g>
     </g>
    </g>
    <g id="ytick_3">
     <g id="line2d_13">
      <path d="M 72 290.88 
L 518.4 290.88 
" clip-path="url(#p379601a524)" style="fill: none; stroke: #b0b0b0; stroke-opacity: 0.3; stroke-width: 0.8; stroke-linecap: square"/>
     </g>
     <g id="line2d_14">
      <g>
       <use xlink:href="#m6f852f1a74" x="72" y="290.88" style="stroke: #000000; stroke-width: 0.8"/>
      </g>
     </g>
     <g id="text_8">
      <!-- 0.0 -->
      <g transform="translate(30 300.60125) scale(0.28 -0.28)">
       <use xlink:href="#TimesNewRomanPSMT-30"/>
       <use xlink:href="#TimesNewRomanPSMT-2e" transform="translate(50 0)"/>
       <use xlink:href="#TimesNewRomanPSMT-30" transform="translate(75 0)"/>
      </g>
     </g>
    </g>
    <g id="ytick_4">
     <g id="line2d_15">
      <path d="M 72 198.48 
L 518.4 198.48 
" clip-path="url(#p379601a524)" style="fill: none; stroke: #b0b0b0; stroke-opacity: 0.3; stroke-width: 0.8; stroke-linecap: square"/>
     </g>
     <g id="line2d_16">
      <g>
       <use xlink:href="#m6f852f1a74" x="72" y="198.48" style="stroke: #000000; stroke-width: 0.8"/>
      </g>
     </g>
     <g id="text_9">
      <!-- 0.5 -->
      <g transform="translate(30 208.20125) scale(0.28 -0.28)">
       <use xlink:href="#TimesNewRomanPSMT-30"/>
       <use xlink:href="#TimesNewRomanPSMT-2e" transform="translate(50 0)"/>
       <use xlink:href="#TimesNewRomanPSMT-35" transform="translate(75 0)"/>
      </g>
     </g>
    </g>
    <g id="ytick_5">
     <g id="line2d_17">
      <path d="M 72 106.08 
L 518.4 106.08 
" clip-path="url(#p379601a524)" style="fill: none; stroke: #b0b0b0; stroke-opacity: 0.3; stroke-width: 0.8; stroke-linecap: square"/>
     </g>
     <g id="line2d_18">
      <g>
       <use xlink:href="#m6f852f1a74" x="72" y="106.08" style="stroke: #000000; stroke-width: 0.8"/>
      </g>
     </g>
     <g id="text_10">
      <!-- 1.0 -->
      <g transform="translate(30 115.80125) scale(0.28 -0.28)">
       <use xlink:href="#TimesNewRomanPSMT-31"/>
       <use xlink:href="#TimesNewRomanPSMT-2e" transform="translate(50 0)"/>
       <use xlink:href="#TimesNewRomanPSMT-30" transform="translate(75 0)"/>
      </g>
     </g>
    </g>
    <g id="text_11">
     <!-- y -->
     <g transform="translate(1.147812 301.38) rotate(-90) scale(0.42 -0.42)">
      <defs>
       <path id="TimesNewRomanPSMT-79" d="M 38 2863 
L 1372 2863 
L 1372 2747 
L 1306 2747 
Q 1166 2747 1095 2686 
Q 1025 2625 1025 2534 
Q 1025 2413 1128 2197 
L 1825 753 
L 2466 2334 
Q 2519 2463 2519 2588 
Q 2519 2644 2497 2672 
Q 2472 2706 2419 2726 
Q 2366 2747 2231 2747 
L 2231 2863 
L 3163 2863 
L 3163 2747 
Q 3047 2734 2984 2696 
Q 2922 2659 2847 2556 
Q 2819 2513 2741 2316 
L 1575 -541 
Q 1406 -956 1132 -1168 
Q 859 -1381 606 -1381 
Q 422 -1381 303 -1275 
Q 184 -1169 184 -1031 
Q 184 -900 270 -820 
Q 356 -741 506 -741 
Q 609 -741 788 -809 
Q 913 -856 944 -856 
Q 1038 -856 1148 -759 
Q 1259 -663 1372 -384 
L 1575 113 
L 547 2272 
Q 500 2369 397 2513 
Q 319 2622 269 2659 
Q 197 2709 38 2747 
L 38 2863 
z
" transform="scale(0.015625)"/>
      </defs>
      <use xlink:href="#TimesNewRomanPSMT-79"/>
     </g>
    </g>
   </g>
   <g id="line2d_19">
    <path d="M 72 480.812817 
L 74.812601 464.04824 
L 78.071647 443.224919 
L 82.00036 416.614626 
L 87.625563 376.823142 
L 97.134833 309.531613 
L 101.376058 281.210519 
L 104.947615 258.810082 
L 108.117372 240.303248 
L 110.974617 224.889169 
L 113.608641 211.849188 
L 116.064086 200.774106 
L 118.385599 191.310189 
L 120.528533 183.474091 
L 122.537534 176.931841 
L 124.457246 171.419435 
L 126.243024 166.946532 
L 127.939514 163.284707 
L 129.50207 160.418545 
L 130.975338 158.15972 
L 132.359316 156.427699 
L 133.654005 155.146656 
L 134.90405 154.217903 
L 136.064806 153.623498 
L 137.180918 153.292294 
L 138.29703 153.193486 
L 139.413141 153.323547 
L 140.529253 153.67863 
L 141.690009 154.282146 
L 142.940054 155.193474 
L 144.234743 156.416121 
L 145.663366 158.085007 
L 147.181278 160.213499 
L 148.833123 162.929222 
L 150.618902 166.311417 
L 152.538614 170.435404 
L 154.636904 175.482551 
L 156.958416 181.669205 
L 159.50315 189.103659 
L 162.360396 198.159086 
L 165.664086 209.402141 
L 169.637444 223.752685 
L 175.351935 245.320448 
L 184.816562 281.044038 
L 189.10243 296.300722 
L 192.718632 308.377872 
L 195.933033 318.355806 
L 198.834923 326.662197 
L 201.513591 333.680823 
L 204.013681 339.630814 
L 206.379838 344.701402 
L 208.612061 348.967566 
L 210.710351 352.508588 
L 212.674707 355.405074 
L 214.549775 357.789036 
L 216.335554 359.712486 
L 218.032043 361.226604 
L 219.683888 362.409197 
L 221.291089 363.285962 
L 222.853645 363.88243 
L 224.371557 364.22373 
L 225.889469 364.334401 
L 227.407381 364.219071 
L 228.925293 363.882957 
L 230.487849 363.312434 
L 232.139694 362.469209 
L 233.880828 361.32283 
L 235.711251 359.844622 
L 237.675608 357.962409 
L 239.773897 355.633549 
L 242.050765 352.761051 
L 244.506211 349.29527 
L 247.229523 345.052975 
L 250.265347 339.897955 
L 253.747615 333.53361 
L 258.033483 325.215049 
L 264.774797 311.570508 
L 272.542934 295.979286 
L 277.007381 287.520612 
L 280.757516 280.880324 
L 284.061206 275.466954 
L 287.09703 270.905382 
L 289.909631 267.066441 
L 292.588299 263.780191 
L 295.088389 261.05421 
L 297.49919 258.747939 
L 299.820702 256.832722 
L 302.052925 255.277522 
L 304.19586 254.049949 
L 306.294149 253.099465 
L 308.347795 252.408389 
L 310.40144 251.950881 
L 312.455086 251.722705 
L 314.508731 251.718472 
L 316.607021 251.938706 
L 318.749955 252.389622 
L 320.982178 253.091837 
L 323.30369 254.060989 
L 325.759136 255.334785 
L 328.348515 256.934517 
L 331.116472 258.909337 
L 334.152295 261.354369 
L 337.545275 264.382399 
L 341.429343 268.156297 
L 346.29559 273.212773 
L 356.162016 283.8895 
L 362.278308 290.301401 
L 366.787399 294.715675 
L 370.716112 298.25748 
L 374.287669 301.182088 
L 377.591359 303.605864 
L 380.716472 305.629116 
L 383.707651 307.306688 
L 386.609541 308.683437 
L 389.466787 309.792694 
L 392.234743 310.63226 
L 395.0027 311.2411 
L 397.770657 311.622085 
L 400.538614 311.78026 
L 403.351215 311.720058 
L 406.253105 311.43449 
L 409.244284 310.915611 
L 412.369397 310.146865 
L 415.673087 309.104222 
L 419.244644 307.740508 
L 423.173357 305.997369 
L 427.682448 303.74447 
L 433.263006 300.692421 
L 445.272367 293.775881 
L 451.924392 290.124772 
L 457.058506 287.55441 
L 461.612241 285.519554 
L 465.808821 283.884412 
L 469.782178 282.570881 
L 473.621602 281.532183 
L 477.416382 280.735942 
L 481.166517 280.176808 
L 484.916652 279.842434 
L 488.711431 279.727076 
L 492.5955 279.831157 
L 496.658146 280.165104 
L 500.944014 280.744805 
L 505.542394 281.595262 
L 510.631863 282.766849 
L 516.658866 284.39219 
L 518.4 284.896929 
L 518.4 284.896929 
" clip-path="url(#p379601a524)" style="fill: none; stroke: #0000ff; stroke-width: 1.5; stroke-linecap: square"/>
   </g>
   <g id="line2d_20">
    <path d="M 72 65.16477 
L 78.071647 74.778154 
L 84.187939 84.048299 
L 90.348875 92.984126 
L 96.554455 101.594481 
L 102.80468 109.888137 
L 109.09955 117.873777 
L 115.439064 125.559995 
L 121.867867 133.005816 
L 128.341314 140.164528 
L 134.90405 147.090695 
L 141.511431 153.742465 
L 148.208101 160.170209 
L 154.994059 166.376396 
L 161.869307 172.363791 
L 168.833843 178.135438 
L 175.932313 183.728936 
L 183.120072 189.110088 
L 190.441764 194.313754 
L 197.89739 199.339279 
L 205.486949 204.186538 
L 213.210441 208.855914 
L 221.112511 213.373076 
L 229.193159 217.735168 
L 237.452385 221.940069 
L 245.890189 225.986367 
L 254.551215 229.892843 
L 263.435464 233.655798 
L 272.587579 237.289577 
L 282.007561 240.788887 
L 291.69541 244.149518 
L 301.69577 247.382237 
L 312.008641 250.481926 
L 322.723312 253.468639 
L 333.79514 256.323126 
L 345.313411 259.061807 
L 357.278128 261.677052 
L 369.778578 264.180077 
L 382.814761 266.562133 
L 396.475968 268.830684 
L 410.806841 270.983352 
L 425.89667 273.02327 
L 441.834743 274.951196 
L 458.710351 276.766145 
L 476.657426 278.469982 
L 495.809901 280.062011 
L 516.346355 281.542901 
L 518.4 281.67935 
L 518.4 281.67935 
" clip-path="url(#p379601a524)" style="fill: none; stroke-dasharray: 3.7,1.6; stroke-dashoffset: 0; stroke: #808080"/>
   </g>
   <g id="line2d_21">
    <path d="M 72 516.59523 
L 78.071647 506.981846 
L 84.187939 497.711701 
L 90.348875 488.775874 
L 96.554455 480.165519 
L 102.80468 471.871863 
L 109.09955 463.886223 
L 115.439064 456.200005 
L 121.867867 448.754184 
L 128.341314 441.595472 
L 134.90405 434.669305 
L 141.511431 428.017535 
L 148.208101 421.589791 
L 154.994059 415.383604 
L 161.869307 409.396209 
L 168.833843 403.624562 
L 175.932313 398.031064 
L 183.120072 392.649912 
L 190.441764 387.446246 
L 197.89739 382.420721 
L 205.486949 377.573462 
L 213.210441 372.904086 
L 221.112511 368.386924 
L 229.193159 364.024832 
L 237.452385 359.819931 
L 245.890189 355.773633 
L 254.551215 351.867157 
L 263.435464 348.104202 
L 272.587579 344.470423 
L 282.007561 340.971113 
L 291.69541 337.610482 
L 301.69577 334.377763 
L 312.008641 331.278074 
L 322.723312 328.291361 
L 333.79514 325.436874 
L 345.313411 322.698193 
L 357.278128 320.082948 
L 369.778578 317.579923 
L 382.814761 315.197867 
L 396.475968 312.929316 
L 410.806841 310.776648 
L 425.89667 308.73673 
L 441.834743 306.808804 
L 458.710351 304.993855 
L 476.657426 303.290018 
L 495.809901 301.697989 
L 516.346355 300.217099 
L 518.4 300.08065 
L 518.4 300.08065 
" clip-path="url(#p379601a524)" style="fill: none; stroke-dasharray: 3.7,1.6; stroke-dashoffset: 0; stroke: #808080"/>
   </g>
   <g id="patch_3">
    <path d="M 72 512.64 
L 72 69.12 
" style="fill: none; stroke: #000000; stroke-width: 0.8; stroke-linejoin: miter; stroke-linecap: square"/>
   </g>
   <g id="patch_4">
    <path d="M 518.4 512.64 
L 518.4 69.12 
" style="fill: none; stroke: #000000; stroke-width: 0.8; stroke-linejoin: miter; stroke-linecap: square"/>
   </g>
   <g id="patch_5">
    <path d="M 72 512.64 
L 518.4 512.64 
" style="fill: none; stroke: #000000; stroke-width: 0.8; stroke-linejoin: miter; stroke-linecap: square"/>
   </g>
   <g id="patch_6">
    <path d="M 72 69.12 
L 518.4 69.12 
" style="fill: none; stroke: #000000; stroke-width: 0.8; stroke-linejoin: miter; stroke-linecap: square"/>
   </g>
  </g>
 </g>
 <defs>
  <clipPath id="p379601a524">
   <rect x="72" y="69.12" width="446.4" height="443.52"/>
  </clipPath>
 </defs>
</svg>
